<?xml version="1.0" standalone="no"?>
<!DOCTYPE svg PUBLIC "-//W3C//DTD SVG 20010904//EN"
 "http://www.w3.org/TR/2001/REC-SVG-20010904/DTD/svg10.dtd">
<svg version="1.0" xmlns="http://www.w3.org/2000/svg"
 width="260.000000pt" height="220.000000pt" viewBox="0 0 260.000000 220.000000"
 preserveAspectRatio="xMidYMid meet">

<g transform="translate(0.000000,220.000000) scale(0.100000,-0.100000)"
fill="#ffffff" stroke="none">
<path d="M990 2109 c-14 -5 -36 -21 -50 -34 -23 -22 -34 -24 -156 -27 -125 -3
-133 -4 -180 -33 -53 -33 -107 -104 -124 -163 -12 -43 -14 -701 -2 -719 4 -7
37 -13 77 -15 l70 -3 3 -119 c1 -67 7 -126 14 -133 14 -17 219 -18 236 -1 7 7
12 31 12 55 l0 43 185 0 185 0 0 -75 0 -75 -61 0 c-95 0 -99 -4 -99 -113 0
-85 3 -96 34 -152 31 -57 35 -60 74 -63 41 -3 42 -4 42 -38 0 -57 25 -103 64
-119 20 -8 44 -15 55 -15 24 0 51 -36 51 -67 0 -41 -34 -63 -95 -63 -46 0 -60
4 -80 25 -14 13 -25 35 -25 49 0 39 -10 56 -35 56 -35 0 -48 -23 -41 -75 8
-53 46 -102 93 -121 46 -20 141 -18 182 4 126 63 94 249 -46 271 -36 6 -38 8
-41 48 l-3 42 43 3 c40 3 44 6 76 63 33 57 34 65 33 149 -1 50 -7 96 -13 103
-6 8 -33 13 -69 13 l-59 0 0 75 0 75 185 0 185 0 0 -43 c0 -24 5 -48 12 -55
17 -17 222 -16 236 1 7 7 13 66 14 133 l3 119 70 3 c40 2 73 8 77 15 12 18 10
676 -2 719 -17 59 -71 130 -124 163 -47 29 -55 30 -180 33 -127 4 -131 4 -163
32 -59 52 -140 52 -205 0 -36 -29 -40 -30 -148 -30 -110 0 -112 0 -150 31 -43
35 -114 47 -160 28z m115 -94 c24 -23 25 -30 25 -145 l0 -120 -86 0 -86 0 4
121 c3 118 4 121 31 145 37 31 81 31 112 -1z m502 1 c27 -24 28 -27 31 -145
l4 -121 -86 0 -86 0 0 120 c0 115 1 122 25 145 31 32 75 32 112 1z m-719 -108
l3 -68 -79 0 c-47 0 -83 -5 -90 -12 -8 -8 -12 -46 -12 -105 l0 -93 -27 0 c-52
0 -52 -1 -55 -225 l-3 -210 -37 -3 -38 -3 0 317 c0 303 1 320 21 362 23 47 77
89 131 102 18 5 67 8 108 7 l75 -2 3 -67z m502 2 l0 -70 -90 0 -90 0 0 70 0
70 90 0 90 0 0 -70z m566 35 c31 -20 56 -45 71 -74 23 -44 23 -48 23 -363 l0
-319 -37 3 -38 3 -3 210 c-3 224 -3 225 -54 225 l-28 0 0 93 c0 59 -4 97 -12
105 -7 7 -43 12 -90 12 l-78 0 0 63 c0 35 3 67 8 71 4 5 48 6 98 4 81 -3 98
-7 140 -33z m-1064 -227 l3 -43 144 -3 c159 -3 171 1 171 54 l0 34 90 0 90 0
0 -34 c0 -53 12 -57 171 -54 l144 3 3 43 3 42 50 0 49 0 0 -65 0 -65 -38 0
c-49 0 -62 -14 -62 -67 l0 -43 -410 0 -410 0 0 43 c0 53 -13 67 -62 67 l-38 0
0 65 0 65 49 0 50 0 3 -42z m-82 -207 c0 -74 -23 -71 490 -71 513 0 490 -3
490 71 l0 40 53 -3 c28 -2 51 -6 50 -10 -2 -5 -3 -143 -3 -308 l0 -300 -50 0
-49 0 -3 146 c-3 127 -5 148 -20 158 -13 8 -23 8 -35 0 -15 -9 -19 -28 -21
-103 l-3 -91 -74 0 -75 0 0 89 c0 69 -4 92 -16 102 -11 9 -20 10 -32 2 -14 -8
-18 -29 -20 -102 l-3 -91 -74 0 -74 0 -3 91 c-2 75 -6 94 -20 103 -13 8 -23 8
-35 0 -15 -9 -19 -28 -21 -103 l-3 -91 -74 0 -75 0 0 89 c0 69 -4 92 -16 102
-11 9 -20 10 -32 2 -14 -8 -18 -29 -20 -102 l-3 -91 -74 0 -74 0 -3 91 c-2 75
-6 94 -20 103 -13 8 -23 8 -35 0 -16 -10 -18 -31 -21 -158 l-3 -146 -49 0 -50
0 0 294 c0 162 -3 301 -6 310 -5 13 3 16 50 16 l56 0 0 -39z m600 -826 c0 -26
-9 -63 -20 -85 l-20 -40 -78 0 -78 0 -17 35 c-9 20 -17 58 -17 85 l0 50 115 0
115 0 0 -45z"/>
</g>
</svg>
